<?xml version="1.0" standalone="no"?>
<!DOCTYPE svg PUBLIC "-//W3C//DTD SVG 20010904//EN"
 "http://www.w3.org/TR/2001/REC-SVG-20010904/DTD/svg10.dtd">
<svg version="1.0" xmlns="http://www.w3.org/2000/svg"
 width="450.000000pt" height="450.000000pt" viewBox="0 0 450.000000 450.000000"
 preserveAspectRatio="xMidYMid meet">
<metadata>
Created by potrace 1.11, written by Peter Selinger 2001-2013
</metadata>
<g transform="translate(0.000000,450.000000) scale(0.100000,-0.100000)"
fill="#000000" stroke="none">
<path d="M2234 4100 c-5 -8 -9 -51 -8 -95 0 -44 -1 -69 -3 -55 -2 14 -8 43
-14 64 -8 29 -13 36 -20 25 -5 -8 -9 -27 -9 -44 -1 -28 -1 -29 -12 -10 -12 19
-13 18 -18 -10 -8 -42 5 -93 31 -121 27 -29 24 -30 -94 -48 -78 -11 -85 -11
-78 3 12 24 21 121 11 121 -5 0 -11 -10 -13 -22 -2 -13 -5 -1 -6 26 -1 49 -13
54 -24 11 -3 -13 -5 -7 -7 15 -1 19 -5 46 -9 60 -7 23 -8 21 -15 -17 -9 -47
-26 -67 -27 -31 0 23 0 23 -10 -2 -6 -14 -9 -42 -7 -62 2 -21 2 -38 1 -38 -2
0 -9 15 -17 33 l-14 32 -1 -38 c-1 -41 10 -70 41 -103 l19 -21 -101 -40 c-55
-23 -100 -38 -100 -35 0 4 5 27 11 51 10 44 4 85 -11 76 -4 -3 -11 13 -15 35
-9 55 -25 60 -26 8 -1 -41 -1 -41 -9 -13 -5 17 -15 47 -23 69 l-14 39 -14 -68
-13 -67 -12 33 -12 34 -1 -53 c-1 -38 -4 -51 -13 -46 -8 5 -9 0 -5 -17 4 -13
7 -32 7 -42 0 -10 17 -33 37 -52 21 -19 35 -36 33 -38 -3 -3 -27 -16 -55 -30
-27 -14 -66 -36 -86 -50 l-36 -25 -6 57 c-4 32 -11 68 -16 82 -9 23 -10 22
-11 -11 l-1 -35 -15 48 c-17 54 -34 62 -34 15 0 -30 -1 -30 -19 -14 -10 9 -22
31 -26 49 -8 37 -11 31 -20 -36 -6 -44 -8 -47 -20 -30 -12 16 -14 8 -13 -61 0
-90 9 -112 54 -126 l32 -11 -69 -69 c-38 -39 -72 -70 -75 -70 -3 0 -3 9 1 20
7 21 -24 130 -37 130 -4 0 -5 -15 -2 -32 l5 -33 -14 30 c-8 17 -22 39 -32 50
-16 19 -16 19 -11 -10 l6 -30 -20 24 c-11 13 -20 29 -20 37 0 8 -5 14 -10 14
-11 0 -3 -74 11 -102 15 -29 10 -32 -16 -8 -34 32 -34 6 0 -44 27 -39 34 -64
10 -32 -23 30 -27 14 -7 -24 10 -18 27 -35 37 -36 10 -1 24 -9 32 -17 12 -12
7 -25 -35 -91 -46 -72 -50 -75 -56 -52 -6 23 -96 129 -96 113 0 -3 4 -18 10
-34 l10 -28 -18 24 c-9 14 -25 34 -34 45 -16 20 -16 19 -11 -23 5 -34 3 -42
-7 -36 -9 6 -11 -4 -9 -43 3 -41 1 -48 -11 -44 -12 5 -11 0 4 -23 24 -39 45
-55 70 -55 48 -1 51 -13 20 -94 -16 -42 -31 -76 -34 -76 -3 0 -18 21 -35 45
-24 35 -31 41 -36 27 -5 -15 -8 -14 -20 6 -19 31 -30 28 -19 -5 10 -27 9 -27
-20 7 -36 41 -36 40 -10 -29 11 -30 17 -57 15 -60 -3 -2 -11 10 -17 27 -15 39
-31 42 -22 5 12 -55 15 -62 32 -66 16 -4 16 -5 0 -6 -28 -2 -21 -19 14 -41 24
-15 42 -19 67 -15 31 6 33 5 28 -17 -3 -13 -9 -53 -13 -90 -4 -38 -9 -68 -11
-68 -9 0 -42 45 -43 58 0 6 -5 12 -11 12 -7 0 -9 -10 -4 -27 l7 -28 -29 28
c-38 36 -47 34 -27 -5 l17 -33 -24 20 c-13 11 -30 26 -36 34 -7 8 -15 12 -18
9 -6 -6 27 -68 54 -103 9 -11 1 -7 -17 9 -17 16 -34 27 -37 25 -9 -9 35 -70
58 -79 20 -8 20 -9 2 -10 l-20 -1 20 -15 c11 -8 30 -12 43 -9 12 3 33 8 46 11
21 5 23 2 29 -48 4 -29 10 -73 13 -98 l7 -45 -37 34 c-20 19 -36 30 -36 24 0
-7 5 -15 10 -18 6 -3 10 -12 10 -18 0 -7 -16 6 -36 28 -32 37 -35 38 -32 15 2
-14 8 -32 13 -40 6 -9 -5 -6 -29 8 -20 12 -39 22 -42 22 -2 0 7 -22 21 -50 24
-48 21 -67 -5 -35 -26 31 -22 4 4 -30 20 -26 35 -35 59 -36 18 -1 24 -3 14 -6
-9 -2 -17 -9 -17 -15 0 -13 87 -3 106 13 13 11 16 3 43 -106 5 -22 13 -51 17
-64 6 -21 5 -22 -14 -12 -29 15 -37 14 -22 -4 17 -20 8 -19 -35 5 -37 21 -41
20 -25 -11 11 -20 -3 -28 -15 -9 -3 5 -16 15 -27 21 -17 9 -14 0 16 -40 31
-44 34 -52 17 -46 -28 9 -26 -7 4 -35 23 -21 29 -23 56 -13 26 10 29 10 19 -3
-17 -19 11 -19 49 1 l28 14 34 -72 c18 -40 35 -75 36 -78 6 -10 -50 -8 -69 2
-23 12 -23 1 -1 -23 15 -17 15 -18 -3 -18 -11 0 -25 5 -32 12 -7 7 -12 8 -12
2 0 -15 51 -61 75 -68 11 -3 5 -4 -13 -2 -37 3 -38 -12 -1 -31 32 -17 74 -16
107 1 27 14 28 13 90 -59 34 -41 62 -75 62 -77 0 -8 -57 -5 -68 4 -19 16 -25
3 -12 -23 13 -23 8 -24 -45 -4 -17 7 -16 3 6 -20 15 -15 42 -31 60 -36 l34 -8
-37 2 c-34 3 -36 2 -22 -14 8 -9 38 -20 66 -23 44 -6 56 -4 81 15 20 14 34 19
42 13 7 -5 47 -37 90 -72 83 -67 150 -106 165 -97 17 11 11 23 -23 42 -67 40
-277 224 -347 305 -204 235 -300 457 -351 819 -16 118 -7 302 21 414 22 88 84
247 118 304 9 15 37 61 62 102 51 84 214 259 307 329 85 64 368 204 476 235
126 35 195 45 334 45 203 0 369 -32 496 -95 267 -134 498 -407 583 -689 73
-244 78 -275 78 -506 1 -189 -2 -228 -22 -323 -58 -269 -154 -453 -348 -664
-132 -145 -250 -236 -400 -308 -72 -35 -143 -67 -157 -70 -32 -8 -53 -30 -37
-40 22 -13 365 152 386 187 3 5 15 -4 25 -21 15 -26 25 -31 56 -31 32 0 35 2
20 13 -15 10 -10 12 30 13 35 0 62 8 97 30 27 16 51 34 53 40 6 17 -66 2 -100
-20 -15 -10 -27 -16 -27 -13 0 3 16 15 36 27 43 27 39 35 -13 21 l-38 -10 25
19 25 20 -23 0 c-13 0 -37 -7 -55 -16 -23 -11 -11 4 43 54 55 51 78 67 87 60
7 -6 11 -13 9 -17 -3 -4 3 -7 12 -8 9 -1 34 -6 55 -11 42 -11 75 -3 134 33 40
24 42 34 6 27 -24 -4 -20 1 21 29 60 41 71 62 27 49 -17 -5 -41 -16 -53 -24
-31 -22 -42 -20 -18 4 31 31 24 42 -17 25 -25 -11 -34 -12 -25 -4 34 35 1 38
-44 4 -59 -45 -56 -27 8 53 l63 79 24 -19 c26 -19 61 -24 61 -8 0 6 13 10 29
10 30 0 90 39 61 40 -8 0 -4 6 10 13 27 13 70 89 70 122 -1 20 -1 20 -12 0
-11 -20 -88 -95 -97 -95 -3 0 8 13 24 30 37 39 26 49 -22 20 l-38 -22 20 22
20 23 -25 -8 c-14 -4 -36 -14 -49 -22 -13 -8 -22 -11 -20 -6 42 95 63 133 73
123 13 -13 79 -13 71 0 -4 6 8 10 29 10 19 0 42 7 50 16 23 22 20 37 -3 24
-39 -20 -35 -9 4 13 26 15 41 31 43 46 l4 24 -36 -21 c-35 -21 -48 -18 -24 6
22 22 -17 14 -48 -10 l-29 -22 19 22 c15 17 16 22 4 22 -8 0 -23 -7 -34 -15
-30 -23 -32 -19 -17 43 21 86 21 86 37 73 23 -19 81 -3 113 31 22 25 24 30 8
23 -44 -16 -58 -16 -25 2 33 17 78 78 67 89 -3 3 -17 -2 -31 -11 -25 -17 -26
-17 -20 0 6 15 4 16 -13 7 -11 -6 -23 -9 -26 -5 -3 3 -23 -4 -43 -16 -24 -14
-35 -17 -31 -8 3 7 8 43 12 79 l7 66 33 -5 c18 -3 43 1 56 8 l24 13 -25 7
c-22 6 -23 7 -4 8 28 1 60 30 69 61 l8 25 -24 -20 c-20 -17 -20 -15 3 10 25
28 48 85 34 85 -4 0 -19 -11 -34 -25 -27 -25 -44 -17 -22 11 20 24 5 26 -23 3
-15 -11 -27 -17 -27 -13 0 14 -50 -39 -57 -60 -6 -17 -8 -14 -14 19 -4 22 -8
59 -8 83 l-1 42 39 0 c48 0 81 29 35 31 -28 1 -27 1 6 9 32 8 87 56 76 67 -2
3 -16 -3 -30 -12 -14 -9 -31 -15 -38 -12 -9 4 -8 6 3 6 24 1 50 35 59 75 11
51 -3 53 -35 6 -15 -22 -29 -39 -31 -37 -2 2 1 19 6 38 6 18 10 38 10 43 0 18
-34 -21 -51 -59 -16 -34 -17 -35 -12 -10 3 17 10 34 14 40 5 5 9 13 9 19 0 15
-41 -26 -58 -59 l-15 -30 -23 85 c-13 47 -23 88 -24 93 0 4 16 7 35 7 39 0 95
24 95 41 0 6 -10 8 -22 4 -20 -5 -20 -4 4 11 26 17 48 53 48 77 -1 7 -9 2 -19
-10 -30 -36 -33 -27 -6 13 22 32 33 74 20 74 -2 0 -22 -18 -45 -40 -43 -42
-52 -44 -20 -3 37 48 23 60 -21 18 -26 -26 -37 -32 -30 -18 18 36 13 38 -19 8
-16 -15 -32 -41 -35 -57 -8 -36 -12 -33 -42 39 -13 32 -27 63 -29 70 -4 7 11
16 38 23 44 12 68 32 68 58 0 13 -2 13 -17 0 -10 -8 -25 -18 -33 -22 -8 -5 -1
4 17 18 31 26 58 81 44 90 -5 3 -13 -5 -19 -19 -6 -13 -21 -29 -34 -36 -21
-11 -21 -10 4 20 24 27 48 86 48 115 0 14 -60 -45 -71 -69 -7 -15 -8 -9 -5 23
5 52 -6 54 -26 5 -24 -58 -39 -90 -33 -70 3 10 8 37 11 60 l6 42 -23 -34 c-13
-19 -26 -52 -29 -74 l-5 -40 -37 55 c-21 30 -38 61 -38 70 0 9 14 21 31 28 17
8 40 27 50 44 25 41 24 53 -3 30 l-21 -19 20 30 c12 17 24 48 27 70 l6 40 -15
-27 c-21 -37 -26 -35 -14 4 11 41 12 108 1 108 -9 0 -37 -58 -46 -95 -3 -11
-4 -3 -3 18 2 20 0 37 -4 37 -11 0 -37 -45 -45 -76 l-8 -29 -6 25 -7 25 -13
-30 c-7 -16 -13 -49 -13 -73 0 -23 -3 -41 -7 -40 -4 2 -33 27 -64 55 l-57 53
40 42 c23 23 40 47 39 52 -1 6 2 25 6 41 15 62 16 75 6 75 -5 0 -10 -8 -11
-17 -1 -12 -4 -9 -8 7 -4 14 -6 43 -4 65 4 35 3 37 -8 20 -6 -11 -21 -30 -31
-42 -11 -12 -24 -45 -29 -75 -8 -51 -8 -50 -3 15 2 37 2 67 0 67 -3 0 -14 -17
-25 -37 -12 -23 -20 -31 -21 -20 0 9 -4 17 -9 17 -13 0 -24 -93 -16 -129 l6
-30 -58 34 c-32 19 -64 38 -72 43 -12 7 -10 14 8 39 25 33 43 107 33 132 -5
11 -9 4 -13 -19 -6 -35 -6 -35 -8 10 l-3 45 -11 -40 -12 -39 -2 72 c-3 101
-19 126 -27 41 -3 -35 -8 -80 -9 -99 -2 -19 -5 0 -5 43 -2 81 -15 95 -27 30
-4 -24 -9 -32 -14 -24 -14 23 -23 -56 -11 -100 6 -22 10 -42 8 -44 -2 -2 -34
5 -73 15 -38 11 -80 19 -92 19 -29 1 -29 18 -2 48 13 13 25 44 30 75 8 52 5
77 -7 42 -17 -54 -20 -52 -16 7 3 43 1 61 -6 54 -6 -5 -12 -21 -15 -35 -2 -14
-5 7 -6 45 l-1 70 -20 -44 c-11 -24 -20 -53 -21 -65 -1 -14 -4 -11 -10 13 -6
18 -13 30 -17 26 -7 -7 -8 -11 -11 -65 l-2 -35 -14 25 -14 25 -2 -35 c-3 -46
-3 -49 6 -92 l7 -38 -86 0 c-95 0 -105 8 -61 50 15 14 27 39 31 66 9 60 0 76
-19 34 l-16 -35 2 63 c2 66 -5 79 -21 35 -9 -28 -9 -28 -21 17 -7 25 -13 49
-15 55 -1 5 -7 2 -12 -5z m57 -193 c-10 -9 -11 -8 -5 6 3 10 9 15 12 12 3 -3
0 -11 -7 -18z m239 -14 c-11 -17 -11 -17 -6 0 3 10 6 24 7 30 0 9 2 9 5 0 3
-7 0 -20 -6 -30z m311 -86 c-10 -9 -11 -8 -5 6 3 10 9 15 12 12 3 -3 0 -11 -7
-18z m-1207 -13 c3 -8 2 -12 -4 -9 -6 3 -10 10 -10 16 0 14 7 11 14 -7z m88
-26 c-6 -6 -7 0 -4 19 5 21 7 23 10 9 2 -10 0 -22 -6 -28z m1265 -60 c-3 -8
-6 -5 -6 6 -1 11 2 17 5 13 3 -3 4 -12 1 -19z m-1625 -123 c11 -21 8 -18 -32
30 -24 29 -24 29 -2 10 13 -11 28 -29 34 -40z m26 24 c-3 -8 -7 -3 -11 10 -4
17 -3 21 5 13 5 -5 8 -16 6 -23z m1859 -31 c-3 -8 -6 -5 -6 6 -1 11 2 17 5 13
3 -3 4 -12 1 -19z m-1908 -46 c14 -11 14 -11 -2 -6 -10 4 -22 15 -27 25 -14
25 -12 38 2 14 6 -11 19 -26 27 -33z m1931 14 c0 -2 -8 -10 -17 -17 -16 -13
-17 -12 -4 4 13 16 21 21 21 13z m27 -2062 c-3 -3 -12 -4 -19 -1 -8 3 -5 6 6
6 11 1 17 -2 13 -5z"/>
<path d="M2188 3598 c0 -13 -1 -34 0 -48 l1 -25 -11 23 c-12 23 -75 68 -84 59
-12 -12 18 -83 48 -114 26 -27 30 -37 22 -51 -6 -9 -15 -17 -20 -17 -6 0 -25
-14 -43 -31 -29 -27 -32 -34 -22 -53 7 -11 17 -21 24 -21 7 0 22 -22 33 -49
19 -42 20 -51 7 -74 -7 -15 -11 -27 -7 -27 4 0 -1 -8 -10 -19 -16 -18 -23 -52
-25 -130 -1 -19 -4 -31 -8 -27 -4 4 -6 22 -5 41 1 18 -2 36 -8 40 -6 3 -8 10
-5 15 3 4 -3 28 -14 52 -19 45 -53 79 -110 110 -37 20 -42 57 -10 89 26 26 20
33 -15 20 -33 -13 -61 -69 -52 -105 4 -15 24 -38 47 -54 63 -42 119 -93 119
-108 0 -8 5 -14 10 -14 7 0 7 -6 0 -19 -14 -27 -13 -34 6 -27 8 3 12 2 9 -4
-11 -18 7 -102 26 -121 11 -11 17 -20 14 -20 -3 -1 -9 -3 -15 -4 -5 -1 -13 -3
-17 -4 -15 -3 23 -21 44 -21 17 0 20 5 17 23 -2 12 -2 16 2 9 3 -6 9 -10 14
-7 5 3 3 -8 -3 -24 -9 -24 -14 -28 -25 -19 -10 9 -16 8 -23 -3 -5 -8 -9 -10
-9 -5 0 5 -12 -1 -27 -15 -14 -13 -23 -19 -19 -12 15 26 -68 1 -98 -30 -15
-15 -20 -16 -27 -5 -7 10 -9 10 -9 -2 0 -13 -2 -13 -11 0 -9 13 -10 13 -6 -2
3 -9 3 -19 0 -22 -8 -7 -46 14 -56 31 -7 11 -11 11 -23 -2 -9 -8 -19 -13 -22
-11 -4 2 -8 -13 -8 -35 -1 -21 3 -36 8 -33 5 3 7 12 4 20 -3 8 0 11 8 8 7 -3
16 2 19 10 7 18 37 22 37 5 0 -5 -4 -8 -9 -4 -13 7 -51 -43 -45 -59 6 -15 -22
-29 -38 -19 -7 3 -8 1 -4 -6 5 -7 -5 -17 -28 -26 -19 -8 -38 -19 -41 -25 -7
-12 -25 -4 -25 11 0 6 5 7 12 3 7 -4 8 -3 4 4 -4 6 -12 9 -19 7 -7 -3 -39 22
-71 55 -54 54 -61 59 -76 45 -9 -8 -21 -15 -26 -15 -5 0 -1 7 10 15 11 8 16
20 12 30 -5 13 -2 15 17 8 41 -15 169 -6 235 16 35 12 67 19 73 16 5 -4 9 -1
9 4 0 15 33 14 49 -1 11 -11 12 -10 6 0 -4 8 -2 13 6 11 8 -1 27 -1 44 0 22 1
26 4 17 13 -15 15 -130 11 -212 -8 -79 -19 -179 -21 -210 -4 -18 10 -24 9 -31
-1 -6 -10 -9 -10 -9 -2 0 7 7 16 17 21 14 9 14 12 -6 33 -12 13 -24 34 -28 47
-4 19 -11 23 -29 19 -13 -2 -24 0 -24 5 0 17 -22 -4 -35 -34 l-12 -30 -7 53
c-6 43 -9 50 -17 36 -6 -9 -7 -27 -4 -38 5 -14 3 -19 -3 -15 -6 4 -14 27 -18
51 -3 25 -11 48 -17 52 -14 8 -2 -136 13 -151 5 -5 10 -14 10 -18 0 -7 -50 46
-67 71 -2 2 -6 2 -9 -2 -4 -3 4 -26 16 -51 17 -37 29 -47 58 -56 51 -14 52
-13 53 18 1 23 2 21 10 -12 5 -21 25 -56 44 -77 19 -22 35 -44 35 -49 0 -18
29 -11 50 12 11 12 20 16 20 10 0 -7 -14 -21 -30 -31 l-31 -18 45 -50 c25 -28
42 -54 38 -58 -4 -5 -2 -6 3 -2 15 8 48 -20 39 -34 -4 -8 -3 -10 5 -5 6 4 24
1 39 -6 29 -15 26 -16 105 32 9 6 17 8 17 5 0 -4 7 1 16 9 8 9 20 14 25 11 5
-4 9 1 9 10 0 9 4 14 9 10 6 -3 4 -19 -5 -40 -19 -47 -18 -81 6 -105 25 -25
43 -26 38 -2 -2 9 -8 17 -15 17 -6 0 -15 3 -19 8 -4 4 -2 7 4 7 7 0 12 6 12
13 0 6 16 25 35 40 39 31 45 60 18 89 -12 13 -13 22 -6 29 8 8 11 6 10 -6 -2
-19 28 -43 39 -32 4 3 0 17 -9 30 -15 23 -14 24 16 41 32 18 32 18 8 -2 -21
-17 -22 -21 -10 -40 9 -14 20 -20 29 -16 8 3 29 8 46 11 29 5 32 2 48 -41 10
-25 15 -50 11 -56 -4 -6 -2 -16 3 -23 6 -7 12 -21 14 -32 1 -11 7 -23 11 -26
5 -3 9 -12 10 -20 2 -8 6 -19 10 -26 6 -9 0 -9 -24 -3 -44 13 -83 2 -115 -31
-15 -16 -32 -29 -36 -29 -5 0 -21 -11 -36 -25 -15 -14 -31 -25 -37 -25 -6 0
-18 -9 -28 -20 -10 -12 -22 -18 -27 -15 -5 3 -7 0 -4 -8 7 -19 -106 -122 -148
-135 -44 -14 -119 -22 -113 -13 2 4 -2 8 -10 8 -8 0 -12 -4 -9 -9 3 -4 -6 -8
-20 -8 -14 0 -28 5 -31 10 -3 6 -17 10 -30 10 -22 0 -24 -2 -13 -25 8 -18 8
-28 -1 -38 -15 -19 -4 -47 19 -47 10 0 21 -6 23 -12 4 -10 6 -10 6 0 1 8 -8
16 -19 19 -11 3 -17 10 -13 16 3 6 1 7 -5 3 -13 -8 -17 6 -5 18 4 3 18 -6 31
-21 13 -16 29 -28 34 -28 6 0 13 -7 15 -15 4 -13 3 -13 -6 0 -8 12 -10 11 -8
-7 1 -21 1 -21 25 -2 28 22 47 25 36 7 -6 -10 -5 -10 7 -1 17 13 59 14 59 0 0
-5 -9 -6 -19 -2 -11 3 -22 2 -25 -3 -3 -5 6 -9 19 -9 14 0 28 3 31 8 3 5 19 9
35 9 26 0 30 3 27 23 -2 15 -12 24 -33 28 -28 6 -28 6 8 8 22 0 52 10 68 22
16 11 35 22 42 23 7 1 22 7 34 14 12 7 30 13 40 15 10 1 29 10 43 19 14 9 32
18 40 20 8 2 17 5 20 8 4 4 71 50 106 72 6 4 24 -7 40 -25 l29 -32 -32 29 -32
29 -35 -37 c-19 -21 -45 -59 -58 -85 -12 -25 -27 -49 -31 -52 -5 -3 -8 -10 -8
-15 1 -10 -26 -107 -40 -142 -15 -38 -10 -66 19 -113 34 -55 55 -115 46 -130
-4 -7 -3 -9 4 -5 14 8 20 -18 18 -76 -2 -27 -1 -48 0 -48 2 0 8 10 15 21 6 12
7 19 1 15 -6 -3 -9 5 -8 20 1 22 3 23 11 9 6 -9 29 -46 53 -82 23 -36 42 -75
42 -86 0 -25 -88 -107 -106 -100 -8 3 -22 2 -31 -2 -17 -6 -17 -7 1 -20 10 -8
23 -12 29 -8 5 3 57 6 115 7 86 1 107 4 115 17 8 13 6 24 -8 45 -10 16 -18 31
-18 34 1 3 -3 10 -9 17 -8 11 -13 36 -23 143 -6 64 -44 164 -78 206 -25 32
-33 51 -32 80 0 40 3 42 50 31 16 -4 21 0 22 16 0 12 -1 16 -4 9 -4 -10 -8
-10 -21 0 -12 10 -14 10 -8 1 4 -7 3 -13 -2 -13 -24 0 -18 17 21 59 23 25 52
59 64 76 18 25 23 27 37 16 9 -7 16 -10 16 -6 0 4 -8 14 -17 21 -12 9 -14 13
-5 14 7 0 11 4 7 9 -3 6 4 19 15 29 l21 20 -35 6 c-19 4 -45 16 -58 27 -22 19
-21 19 19 -1 24 -13 55 -20 74 -18 30 3 34 8 46 48 l13 45 -6 -47 c-5 -43 -3
-48 15 -48 51 0 62 26 42 98 -6 19 -6 30 -1 27 5 -3 12 -28 16 -55 4 -28 9
-50 11 -50 3 0 14 11 25 25 20 25 46 36 31 13 -11 -19 -12 -37 -2 -44 5 -3 6
-11 3 -17 -4 -7 -3 -9 1 -4 14 12 16 47 4 47 -8 0 -8 5 1 15 10 12 9 16 -4 21
-9 3 -13 10 -10 15 3 5 10 7 15 4 5 -4 5 3 0 18 -7 17 -6 29 2 37 9 10 9 11 0
6 -9 -5 -13 0 -13 13 0 12 6 21 13 21 8 0 7 3 -3 10 -8 5 -15 14 -15 19 0 6
-9 17 -20 26 -16 12 -17 14 -2 9 9 -3 17 -4 17 -1 0 37 -96 124 -133 120 -20
-2 -20 -2 -4 8 10 6 17 22 17 39 0 26 -4 30 -27 31 -16 0 -22 3 -15 6 31 12
111 -20 168 -68 32 -27 81 -58 109 -69 27 -10 43 -19 35 -19 -29 -1 -95 36
-149 82 -72 62 -88 61 -21 0 86 -78 106 -87 291 -127 16 -3 29 -15 32 -28 5
-18 8 -19 21 -8 13 10 19 10 33 -1 24 -19 60 -62 62 -74 1 -5 10 -19 20 -30
11 -11 29 -40 41 -65 26 -52 68 -103 119 -144 20 -15 35 -32 34 -37 -2 -4 4
-6 11 -3 8 3 26 -1 41 -8 l26 -14 -37 -55 c-21 -30 -55 -79 -76 -109 -21 -30
-55 -80 -75 -110 -100 -152 -374 -383 -506 -426 -62 -20 -77 -31 -58 -43 17
-11 109 26 202 81 93 57 230 177 317 280 73 86 199 267 253 363 17 30 37 55
44 55 19 0 25 23 10 40 -11 12 -9 28 13 90 24 67 27 90 27 210 0 134 -26 431
-46 518 -13 57 -51 155 -97 247 -39 79 -149 199 -271 297 -91 73 -119 87 -270
139 -116 39 -200 53 -217 36 -10 -10 17 -28 32 -23 20 8 236 -59 304 -94 97
-49 269 -197 332 -288 46 -67 106 -195 128 -274 17 -63 51 -336 67 -536 5 -62
5 -63 -18 -60 -13 1 -55 -1 -92 -6 -98 -11 -170 17 -246 95 -63 64 -89 74
-217 83 -91 5 -122 16 -220 75 -37 23 -77 41 -89 41 l-22 0 24 50 c13 28 26
50 29 50 2 0 0 -9 -6 -20 -9 -17 -6 -21 23 -34 19 -7 44 -17 56 -21 11 -3 19
-10 17 -14 -3 -4 4 -13 16 -20 11 -7 17 -8 14 -2 -4 5 -2 12 3 16 5 3 14 -1
18 -10 5 -8 20 -16 33 -17 14 -2 27 -6 30 -9 3 -3 24 -13 47 -22 l43 -17 61
63 c69 69 116 137 154 223 30 68 37 74 91 74 25 0 47 6 54 15 9 11 16 12 25 5
9 -7 16 -5 26 7 13 16 12 17 -3 5 -17 -14 -35 -1 -23 18 9 14 -8 12 -24 -2 -8
-7 -3 2 9 19 13 18 20 36 16 40 -4 4 -11 1 -16 -6 -13 -22 -17 18 -6 60 5 20
6 45 1 55 -7 17 -9 15 -15 -11 -6 -30 -6 -29 -13 11 -4 23 -14 48 -23 55 -15
12 -16 11 -9 -10 4 -13 1 -43 -6 -68 -12 -44 -12 -45 -25 -22 -7 13 -11 35 -8
49 5 25 5 25 -11 5 -16 -20 -17 -83 0 -132 6 -18 1 -25 -34 -42 -23 -12 -41
-25 -41 -30 0 -14 -80 -32 -143 -32 -34 0 -97 5 -141 11 -106 13 -196 -1 -196
-32 0 -9 3 -9 12 0 21 21 119 12 248 -22 l124 -34 39 42 c60 62 17 3 -68 -95
-58 -67 -80 -87 -99 -85 -13 0 -22 5 -19 9 3 4 -8 20 -23 35 -15 15 -24 21
-20 15 4 -7 2 -13 -3 -13 -6 0 -11 5 -11 11 0 5 -5 7 -11 4 -5 -4 -26 4 -44
17 -38 25 -48 46 -14 28 11 -7 23 -9 26 -6 7 7 -39 25 -49 19 -13 -7 -48 17
-48 33 0 9 -7 14 -17 12 -10 -2 -26 5 -36 15 -11 11 -27 17 -37 14 -26 -7 -34
33 -15 69 14 26 15 27 15 7 0 -13 11 -30 24 -38 23 -15 27 -15 63 3 66 34 145
45 273 37 98 -6 122 -4 148 9 60 31 77 99 42 171 l-19 40 5 -45 c11 -86 -52
-130 -183 -130 -83 0 -201 -28 -257 -61 -30 -18 -34 -18 -40 -3 -10 26 -7 40
14 64 11 13 20 27 20 31 0 18 90 59 168 77 94 22 118 39 133 94 13 50 6 72
-37 104 -36 28 -58 27 -30 -1 44 -45 0 -119 -91 -155 -84 -33 -121 -57 -148
-98 l-25 -36 -6 33 c-5 24 -9 29 -16 19 -7 -9 -8 -8 -6 7 2 11 8 20 15 20 6 0
15 3 19 8 4 4 2 7 -4 7 -23 0 21 76 79 135 69 71 75 100 30 146 -34 34 -57 39
-41 10 18 -35 11 -59 -40 -137 -43 -66 -57 -102 -51 -136 0 -5 -4 -8 -9 -8 -6
0 -19 -15 -30 -32 -18 -29 -22 -29 -19 0 0 4 -10 10 -23 14 -17 6 -15 7 8 3
38 -5 48 3 31 23 -10 13 -9 15 5 10 13 -6 18 2 23 42 5 36 18 63 51 106 50 64
53 80 23 118 -31 39 -50 35 -37 -8 9 -29 8 -38 -11 -64 -28 -40 -51 -106 -51
-148 l0 -33 -23 22 c-25 24 -27 38 -3 18 13 -11 15 -6 10 36 -4 36 -1 57 15
87 11 21 18 43 15 47 -3 5 -1 9 4 9 6 0 13 7 16 15 5 15 -45 75 -63 75 -13 0
-9 29 5 34 18 7 40 54 47 99 5 32 -5 52 -15 30 -1 -5 -18 -18 -35 -31 l-33
-23 0 36 c0 19 -3 35 -6 35 -10 0 -43 -45 -44 -60 -1 -8 -10 2 -21 23 -23 43
-28 46 -31 15z m65 -115 c-7 -2 -19 -2 -25 0 -7 3 -2 5 12 5 14 0 19 -2 13 -5z
m1 -35 c-4 -5 -15 -8 -25 -5 -10 3 -22 1 -25 -4 -3 -5 -11 -9 -17 -9 -7 0 -4
7 6 14 20 15 70 18 61 4z m-94 -73 c0 -5 -5 -3 -10 5 -5 8 -10 20 -10 25 0 6
5 3 10 -5 5 -8 10 -19 10 -25z m52 -10 c9 -20 9 -20 -6 -1 -9 11 -16 27 -15
35 0 14 1 14 6 1 3 -8 10 -24 15 -35z m-81 8 c13 -16 12 -17 -3 -4 -10 7 -18
15 -18 17 0 8 8 3 21 -13z m195 -6 c4 -3 -6 -5 -20 -3 -14 1 -29 5 -32 9 -3 3
6 4 20 3 15 -2 29 -6 32 -9z m22 -22 c-6 -14 -13 -23 -15 -21 -5 5 15 46 22
46 3 0 -1 -11 -7 -25z m-227 -2 c13 -16 12 -17 -3 -4 -10 7 -18 15 -18 17 0 8
8 3 21 -13z m197 -58 c-6 -13 -15 -22 -19 -19 -5 2 -1 14 9 24 22 26 24 25 10
-5z m-48 -39 c0 -5 -7 -3 -15 4 -8 7 -12 17 -9 22 7 10 24 -9 24 -26z m-33
-48 c-3 -8 -6 -5 -6 6 -1 11 2 17 5 13 3 -3 4 -12 1 -19z m-38 -2 c-2 -2 -15
-9 -29 -15 -24 -11 -24 -11 -6 3 16 13 49 24 35 12z m8 -62 c-3 -3 -12 -4 -19
-1 -8 3 -5 6 6 6 11 1 17 -2 13 -5z m-10 -30 c-3 -3 -12 -4 -19 -1 -8 3 -5 6
6 6 11 1 17 -2 13 -5z m112 3 c-10 -9 -59 -17 -59 -9 0 4 14 9 32 10 18 2 30
1 27 -1z m-97 -36 c4 -3 -13 -6 -37 -6 -45 0 -60 10 -27 18 18 5 53 -1 64 -12z
m64 -10 c0 -14 -4 -17 -12 -10 -8 7 -15 6 -20 -2 -4 -7 1 -18 11 -26 20 -14
16 -17 -9 -7 -23 9 -19 39 7 52 12 6 22 11 22 11 1 1 1 -8 1 -18z m-121 -11
c-3 -5 2 -10 12 -11 11 0 13 -3 5 -6 -7 -3 -20 -2 -30 2 -14 5 -14 7 -2 15 19
12 23 12 15 0z m225 -24 c0 -3 -4 -8 -10 -11 -5 -3 -10 -1 -10 4 0 6 5 11 10
11 6 0 10 -2 10 -4z m-166 -81 c3 -8 1 -15 -4 -15 -6 0 -10 7 -10 15 0 8 2 15
4 15 2 0 6 -7 10 -15z m786 11 c0 -2 -8 -10 -17 -17 -16 -13 -17 -12 -4 4 13
16 21 21 21 13z m45 -6 c-3 -5 -12 -10 -18 -10 -7 0 -6 4 3 10 19 12 23 12 15
0z m-921 -26 c3 -8 2 -12 -4 -9 -6 3 -10 10 -10 16 0 14 7 11 14 -7z m-647
-20 c-3 -3 -12 -4 -19 -1 -8 3 -5 6 6 6 11 1 17 -2 13 -5z m18 -53 c3 -5 1
-12 -5 -16 -5 -3 -10 1 -10 9 0 18 6 21 15 7z m825 -5 c0 -3 -4 -8 -10 -11 -5
-3 -10 -1 -10 4 0 6 5 11 10 11 6 0 10 -2 10 -4z m-31 -20 c-2 -2 -15 -7 -29
-10 l-25 -7 25 15 c21 12 42 14 29 2z m-100 -47 c-11 -6 -8 -13 9 -32 22 -23
29 -61 13 -71 -4 -3 -6 6 -3 20 3 16 -2 33 -15 47 -24 25 -27 58 -5 50 11 -5
11 -7 1 -14z m101 -5 c0 -2 -9 0 -20 6 -11 6 -20 13 -20 16 0 2 9 0 20 -6 11
-6 20 -13 20 -16z m133 -25 c-8 -29 -13 -23 -13 14 0 22 3 28 9 18 5 -7 6 -22
4 -32z m-603 -4 c-7 -8 -17 -12 -23 -8 -6 4 -3 11 8 19 23 17 32 10 15 -11z
m266 -20 c-38 -25 -70 -44 -72 -42 -5 4 119 86 131 87 6 0 -21 -20 -59 -45z
m-157 12 c12 -15 12 -17 -1 -12 -9 4 -23 -1 -32 -10 -9 -9 -16 -13 -16 -8 0 9
31 56 34 51 1 -2 8 -11 15 -21z m41 -51 c0 -2 -8 -10 -17 -17 -16 -13 -17 -12
-4 4 13 16 21 21 21 13z m600 -6 c0 -5 -5 -10 -11 -10 -5 0 -7 5 -4 10 3 6 8
10 11 10 2 0 4 -4 4 -10z m-387 -25 c-3 -9 -8 -14 -11 -11 -2 3 -20 -1 -39 -9
-55 -23 -53 -16 2 10 28 13 51 24 52 24 1 1 0 -6 -4 -14z m20 -76 c-4 -4 -6
13 -3 39 l5 47 3 -39 c2 -21 0 -42 -5 -47z m357 77 c0 -3 -4 -8 -10 -11 -5 -3
-10 -1 -10 4 0 6 5 11 10 11 6 0 10 -2 10 -4z m63 -21 c-3 -9 -8 -14 -10 -11
-3 3 -2 9 2 15 9 16 15 13 8 -4z m-789 -31 c3 -8 2 -12 -4 -9 -6 3 -10 10 -10
16 0 14 7 11 14 -7z m66 2 c0 -2 -8 -10 -17 -17 -16 -13 -17 -12 -4 4 13 16
21 21 21 13z m437 -2 c-3 -3 -12 -4 -19 -1 -8 3 -5 6 6 6 11 1 17 -2 13 -5z
m-160 -36 c-3 -8 -6 -5 -6 6 -1 11 2 17 5 13 3 -3 4 -12 1 -19z m220 -104 c-3
-3 -12 -4 -19 -1 -8 3 -5 6 6 6 11 1 17 -2 13 -5z m-163 -20 c3 -8 2 -12 -4
-9 -6 3 -10 10 -10 16 0 14 7 11 14 -7z m121 6 c-3 -5 -11 -10 -16 -10 -6 0
-7 5 -4 10 3 6 11 10 16 10 6 0 7 -4 4 -10z m-45 -24 c0 -2 -8 -10 -17 -17
-16 -13 -17 -12 -4 4 13 16 21 21 21 13z m388 -3 c-10 -2 -26 -2 -35 0 -10 3
-2 5 17 5 19 0 27 -2 18 -5z m-439 -37 c-3 -3 -11 5 -18 17 -13 21 -12 21 5 5
10 -10 16 -20 13 -22z m-34 4 c3 -5 1 -10 -4 -10 -6 0 -11 5 -11 10 0 6 2 10
4 10 3 0 8 -4 11 -10z m195 0 c11 -8 7 -9 -15 -4 -37 8 -45 14 -19 14 10 0 26
-5 34 -10z m-70 -10 c0 -5 -7 -7 -15 -4 -8 4 -15 8 -15 10 0 2 7 4 15 4 8 0
15 -4 15 -10z m86 -72 c11 -22 5 -18 -31 17 -25 25 -45 48 -45 51 0 13 64 -44
76 -68z m-95 45 c13 -16 12 -17 -3 -4 -10 7 -18 15 -18 17 0 8 8 3 21 -13z
m-33 -28 c-3 -3 -9 2 -12 12 -6 14 -5 15 5 6 7 -7 10 -15 7 -18z m737 -96 c33
-15 64 -20 108 -19 91 3 90 4 83 -27 -26 -105 -23 -101 -59 -94 -61 14 -108
43 -150 94 -23 28 -69 77 -102 110 l-60 59 66 -51 c37 -28 88 -61 114 -72z
m-654 56 c7 -13 3 -12 -10 5 -11 14 -21 30 -21 35 0 11 14 -7 31 -40z m-52
-34 c-1 -26 -3 -23 -20 34 -8 28 -8 29 6 11 8 -11 15 -31 14 -45z m131 -2 c0
-6 -4 -7 -10 -4 -5 3 -10 11 -10 16 0 6 5 7 10 4 6 -3 10 -11 10 -16z m-840
-205 c0 -2 -9 0 -20 6 -11 6 -20 13 -20 16 0 2 9 0 20 -6 11 -6 20 -13 20 -16z
m1576 0 c-30 -21 -42 -17 -15 5 13 11 26 17 29 14 3 -2 -4 -11 -14 -19z m-992
-676 c-5 -8 -1 -9 12 -4 12 4 7 -3 -11 -18 -36 -30 -57 -35 -24 -5 17 15 19
19 7 15 -48 -16 -50 -16 -18 3 42 24 43 24 34 9z"/>
<path d="M1953 3555 c-156 -53 -346 -145 -420 -202 -83 -63 -206 -197 -264
-288 -47 -73 -94 -190 -114 -285 -35 -168 -28 -441 15 -598 24 -86 111 -284
164 -372 77 -129 356 -450 391 -450 6 0 16 5 22 11 8 8 -8 29 -59 77 -90 86
-231 255 -300 362 -176 272 -240 529 -209 840 21 203 62 314 171 459 68 90
213 230 277 268 59 34 186 88 324 137 64 23 117 46 118 51 3 19 -44 15 -116
-10z"/>
<path d="M1984 3365 c-34 -34 -24 -69 32 -120 28 -25 51 -58 63 -89 l19 -50 7
32 c11 51 -3 90 -46 124 -21 17 -41 39 -44 49 -8 23 11 59 30 59 8 0 15 5 15
10 0 20 -51 10 -76 -15z"/>
<path d="M2574 3345 c47 -44 28 -106 -49 -150 -22 -14 -51 -35 -63 -48 -24
-25 -56 -107 -46 -116 4 -3 9 0 11 7 12 32 60 74 117 101 78 38 97 59 104 116
5 50 -9 75 -60 101 -40 21 -44 17 -14 -11z"/>
<path d="M1786 3297 c-9 -7 -20 -31 -22 -52 -7 -54 22 -99 73 -115 99 -32 152
-71 200 -147 18 -29 22 -32 17 -13 -24 90 -80 160 -163 204 -68 35 -97 70 -85
101 4 8 12 15 20 15 8 0 14 5 14 10 0 14 -33 12 -54 -3z"/>
<path d="M2770 3258 c0 -3 7 -20 16 -38 13 -25 15 -41 8 -68 -13 -51 -46 -70
-143 -82 -96 -11 -159 -38 -196 -82 -32 -38 -26 -47 9 -15 33 31 96 47 183 47
118 0 174 29 193 100 13 48 0 88 -38 118 -18 13 -32 22 -32 20z"/>
<path d="M1667 3213 c-20 -23 -31 -67 -23 -97 12 -47 58 -67 166 -76 118 -9
173 -36 223 -106 41 -59 48 -47 8 15 -65 101 -115 131 -245 146 -46 5 -66 13
-88 35 -30 30 -34 50 -18 81 13 24 -2 25 -23 2z"/>
<path d="M1566 3139 c-41 -48 -36 -101 13 -150 l39 -39 119 0 c80 0 137 -5
173 -16 69 -20 131 -59 124 -78 -6 -15 -19 -13 -109 19 -35 13 -92 20 -187 24
-116 5 -141 9 -165 27 -38 28 -75 102 -69 137 7 37 -10 34 -23 -4 -16 -46 -14
-68 13 -124 29 -62 49 -81 106 -96 37 -10 57 -9 117 5 89 20 174 21 239 1 62
-18 94 -16 86 5 -5 13 -3 13 11 1 15 -11 17 -11 17 2 0 22 -76 86 -135 113
-58 27 -137 44 -202 44 -49 0 -101 19 -122 44 -16 19 -19 71 -7 99 13 28 -10
20 -38 -14z"/>
<path d="M2370 2870 c0 -5 5 -10 11 -10 5 0 7 5 4 10 -3 6 -8 10 -11 10 -2 0
-4 -4 -4 -10z"/>
<path d="M2452 2830 c0 -14 2 -19 5 -12 2 6 2 18 0 25 -3 6 -5 1 -5 -13z"/>
<path d="M2528 2793 c7 -3 16 -2 19 1 4 3 -2 6 -13 5 -11 0 -14 -3 -6 -6z"/>
<path d="M1855 2780 c-3 -5 -2 -10 4 -10 5 0 13 5 16 10 3 6 2 10 -4 10 -5 0
-13 -4 -16 -10z"/>
<path d="M2628 2713 c7 -3 16 -2 19 1 4 3 -2 6 -13 5 -11 0 -14 -3 -6 -6z"/>
<path d="M1678 2651 c-15 -5 -14 -8 7 -17 20 -10 22 -9 17 5 -5 14 -4 14 13 1
15 -12 17 -12 10 -1 -6 11 -4 13 9 8 9 -4 15 -3 12 2 -6 10 -43 11 -68 2z"/>
<path d="M2760 2555 c0 -8 5 -15 10 -15 6 0 10 7 10 15 0 8 -4 15 -10 15 -5 0
-10 -7 -10 -15z"/>
<path d="M2590 2553 c0 -5 10 -9 21 -10 29 -2 34 -10 20 -27 -10 -12 -9 -15 8
-13 12 1 21 5 21 10 0 4 6 5 13 1 6 -4 9 -4 5 0 -3 4 -9 6 -12 4 -3 -1 -11 4
-18 13 -15 19 -58 35 -58 22z"/>
<path d="M1554 2529 c-3 -5 -2 -9 3 -8 24 4 43 -2 37 -13 -4 -7 -3 -8 5 -4 6
4 9 11 6 15 -8 13 -44 20 -51 10z"/>
<path d="M2713 2528 c-26 -13 -30 -25 -8 -25 8 0 13 3 10 5 -3 3 3 11 13 18
20 16 15 17 -15 2z"/>
<path d="M1766 2511 c-4 -5 -2 -12 3 -15 5 -4 12 -2 15 3 4 5 2 12 -3 15 -5 4
-12 2 -15 -3z"/>
<path d="M2770 2511 c0 -8 -8 -10 -22 -6 -21 5 -21 5 -5 -6 20 -11 48 3 34 18
-4 3 -7 1 -7 -6z"/>
<path d="M1645 2480 c3 -5 11 -10 16 -10 6 0 7 5 4 10 -3 6 -11 10 -16 10 -6
0 -7 -4 -4 -10z"/>
<path d="M1688 2463 c6 -2 18 -2 25 0 6 3 1 5 -13 5 -14 0 -19 -2 -12 -5z"/>
<path d="M1740 2449 c0 -5 5 -7 10 -4 6 3 10 8 10 11 0 2 -4 4 -10 4 -5 0 -10
-5 -10 -11z"/>
<path d="M1688 2433 c7 -3 16 -2 19 1 4 3 -2 6 -13 5 -11 0 -14 -3 -6 -6z"/>
<path d="M2022 2395 c-12 -14 -18 -25 -12 -25 5 0 14 9 20 20 6 11 16 17 22
14 7 -4 8 -3 4 4 -9 16 -9 16 -34 -13z"/>
<path d="M2476 2412 c-2 -4 -1 -14 4 -22 7 -11 9 -9 7 8 -1 24 -3 26 -11 14z"/>
<path d="M1967 2399 c7 -7 15 -10 18 -7 3 3 -2 9 -12 12 -14 6 -15 5 -6 -5z"/>
<path d="M1921 2373 c-1 -7 8 -17 19 -23 14 -7 20 -7 20 0 0 5 -6 10 -14 10
-8 0 -17 6 -19 13 -4 9 -6 9 -6 0z"/>
<path d="M2723 2369 c9 -6 14 -15 11 -21 -4 -7 -2 -8 5 -4 14 9 -3 36 -23 36
-6 0 -3 -5 7 -11z"/>
<path d="M1975 2360 c3 -5 8 -10 11 -10 2 0 4 5 4 10 0 6 -5 10 -11 10 -5 0
-7 -4 -4 -10z"/>
<path d="M1891 2336 c-10 -12 -7 -14 19 -11 29 4 31 3 18 -13 -12 -15 -11 -16
4 -3 22 17 13 34 -14 25 -14 -4 -18 -2 -14 5 10 16 1 14 -13 -3z"/>
<path d="M1867 2291 c-3 -14 -1 -18 9 -14 8 3 11 10 7 16 -4 6 0 8 11 4 10 -4
15 -3 11 3 -10 17 -32 11 -38 -9z"/>
<path d="M2830 2300 c-10 -6 -11 -10 -2 -10 6 0 12 -5 12 -11 0 -5 -5 -7 -12
-3 -7 4 -8 3 -4 -5 10 -16 25 -4 23 19 -1 11 -1 20 -2 20 0 0 -7 -5 -15 -10z"/>
<path d="M2868 2288 c10 -13 10 -17 0 -21 -9 -4 -9 -6 -1 -6 20 -2 24 16 5 30
-15 13 -16 12 -4 -3z"/>
<path d="M2903 2195 c0 -8 4 -15 8 -15 5 0 6 -6 3 -14 -3 -8 -1 -17 4 -20 12
-7 7 43 -6 56 -5 5 -9 3 -9 -7z"/>
<path d="M2904 2119 c0 -13 3 -15 13 -7 7 6 13 12 13 13 0 2 -6 5 -13 8 -7 3
-13 -3 -13 -14z"/>
<path d="M1966 2107 c3 -10 9 -15 12 -12 3 3 0 11 -7 18 -10 9 -11 8 -5 -6z"/>
<path d="M1939 2101 c8 -5 10 -14 6 -22 -6 -11 -5 -11 5 -2 14 12 6 33 -13 33
-8 0 -7 -3 2 -9z"/>
<path d="M2295 2100 c-3 -5 -1 -10 4 -10 6 0 11 5 11 10 0 6 -2 10 -4 10 -3 0
-8 -4 -11 -10z"/>
<path d="M1959 2063 c-13 -16 -12 -17 4 -4 9 7 17 15 17 17 0 8 -8 3 -21 -13z"/>
<path d="M2270 2070 c0 -5 5 -10 10 -10 6 0 10 5 10 10 0 6 -4 10 -10 10 -5 0
-10 -4 -10 -10z"/>
<path d="M1880 2041 c0 -5 7 -11 14 -14 10 -4 13 -1 9 9 -6 15 -23 19 -23 5z"/>
<path d="M1930 2043 c0 -6 8 -17 18 -24 16 -13 16 -13 2 6 -8 11 -16 22 -17
24 -2 2 -3 0 -3 -6z"/>
<path d="M2233 2017 c0 -8 6 -14 14 -14 9 0 10 4 2 14 -6 7 -12 13 -14 13 -1
0 -2 -6 -2 -13z"/>
<path d="M2210 1975 c-10 -12 -10 -15 1 -15 11 0 11 -3 -1 -11 -13 -9 -13 -10
0 -6 8 2 15 10 15 18 1 8 7 13 14 11 7 -1 10 2 6 8 -9 14 -20 13 -35 -5z"/>
<path d="M1483 1963 c-20 -8 -15 -19 10 -20 12 0 16 1 9 4 -6 3 -10 9 -6 14 6
10 5 10 -13 2z"/>
<path d="M1576 1952 c-3 -5 1 -9 9 -9 8 0 12 4 9 9 -3 4 -7 8 -9 8 -2 0 -6 -4
-9 -8z"/>
<path d="M2240 1949 c0 -5 5 -7 10 -4 6 3 10 8 10 11 0 2 -4 4 -10 4 -5 0 -10
-5 -10 -11z"/>
<path d="M2050 1510 c0 -5 -8 -10 -17 -11 -12 0 -13 -2 -5 -6 7 -3 19 0 27 7
8 6 20 8 26 4 8 -4 9 -3 5 4 -9 15 -36 16 -36 2z"/>
<path d="M2241 1494 c0 -11 3 -14 6 -6 3 7 2 16 -1 19 -3 4 -6 -2 -5 -13z"/>
<path d="M2087 1483 c-13 -12 -7 -23 11 -22 10 0 12 3 4 6 -6 2 -10 9 -6 14 6
10 0 12 -9 2z"/>
<path d="M1772 1357 c-27 -28 -28 -37 -4 -37 10 0 26 -6 35 -12 15 -12 14 -15
-3 -37 -11 -13 -20 -20 -20 -15 0 4 7 15 16 25 15 17 14 19 -11 25 -40 10 -60
-7 -63 -55 -4 -48 30 -117 61 -127 11 -3 15 -9 10 -13 -15 -9 -50 -100 -57
-144 -3 -28 -1 -40 10 -44 12 -4 10 -10 -9 -29 -13 -13 -29 -41 -35 -62 -16
-54 -47 -90 -80 -94 -16 -2 -27 -9 -27 -18 0 -22 89 -72 139 -77 38 -5 46 -2
60 19 9 13 20 48 26 78 13 69 22 78 14 14 -3 -27 -15 -66 -25 -86 -17 -35 -17
-38 -1 -47 27 -14 234 -44 243 -34 4 4 10 31 12 58 l3 50 2 -52 c3 -72 14 -76
159 -67 l115 7 -6 26 c-3 14 -10 64 -15 111 -11 97 -22 134 -48 149 -17 10
-17 10 0 11 11 0 15 4 11 12 -4 7 -3 8 4 4 7 -4 12 -14 12 -23 0 -15 2 -14 18
0 10 10 22 17 26 17 5 0 -2 -8 -15 -19 -21 -17 -22 -21 -11 -58 7 -22 12 -61
12 -87 0 -26 5 -68 12 -93 l11 -46 61 7 c34 3 87 11 119 17 66 13 73 30 28 70
-18 16 -34 43 -40 70 -18 72 -43 112 -81 130 l-35 17 35 -3 c19 -2 39 -4 43
-4 5 -1 5 -5 2 -11 -3 -5 5 -26 19 -47 13 -21 27 -56 31 -78 10 -58 61 -105
115 -105 54 0 62 21 23 63 -38 40 -49 61 -58 115 -4 26 -15 48 -28 57 -12 8
-16 15 -10 15 12 0 10 19 -9 93 -7 26 -16 47 -20 47 -4 0 -5 6 -2 14 4 10 -6
18 -33 25 -51 14 -80 14 -86 -1 -3 -7 -6 -4 -6 7 -1 12 -6 26 -13 33 -15 15
-92 16 -119 2 -10 -6 -19 -7 -19 -2 0 5 17 15 39 22 31 10 46 10 76 0 50 -17
62 -4 46 49 -12 41 -60 90 -89 92 -31 2 -57 -3 -63 -13 -3 -5 -9 -2 -13 7 -3
10 -11 13 -18 8 -7 -4 -20 -6 -28 -5 -13 2 -15 -17 -15 -118 0 -116 -1 -121
-22 -126 -38 -10 -49 -2 -42 31 l7 30 1 -28 c1 -21 5 -28 18 -25 22 4 36 85
30 171 -3 60 -20 85 -43 66 -8 -7 -14 -6 -19 1 -11 18 -25 0 -25 -35 0 -18 -3
-35 -7 -37 -8 -3 -73 -147 -73 -160 0 -4 8 -8 18 -11 9 -2 4 -3 -13 -3 -23 1
-30 -3 -28 -17 1 -17 -5 -18 -55 -12 -73 8 -79 15 -14 15 44 0 53 4 70 28 31
44 95 200 88 217 -4 11 -18 15 -43 14 -52 -2 -69 4 -90 28 -59 70 -150 93
-191 50z m96 -42 c-6 -14 -13 -23 -15 -21 -5 5 15 46 22 46 3 0 -1 -11 -7 -25z
m-58 -65 c-6 -11 -15 -20 -20 -20 -6 0 -2 9 7 20 10 11 19 20 21 20 1 0 -2 -9
-8 -20z m187 -12 c-3 -7 -5 -2 -5 12 0 14 2 19 5 13 2 -7 2 -19 0 -25z m160
-100 c-2 -24 -4 -5 -4 42 0 47 2 66 4 43 2 -24 2 -62 0 -85z m-322 92 c-3 -5
-12 -10 -18 -10 -7 0 -6 4 3 10 19 12 23 12 15 0z m412 -72 c-2 -13 -4 -3 -4
22 0 25 2 35 4 23 2 -13 2 -33 0 -45z m-278 5 c-15 -17 -13 -50 4 -71 8 -11 5
-11 -17 -1 -22 11 -32 10 -49 -1 -20 -12 -21 -12 -8 3 7 10 22 17 32 17 21 0
27 30 7 30 -7 0 -2 9 12 20 31 24 37 25 19 3z m136 -80 c-3 -29 -11 -53 -17
-53 -6 0 -7 8 -3 18 4 9 10 44 13 77 4 33 8 49 10 36 2 -14 1 -49 -3 -78z
m-258 41 c-3 -3 -12 -4 -19 -1 -8 3 -5 6 6 6 11 1 17 -2 13 -5z m38 -22 c-3
-3 -11 0 -18 7 -9 10 -8 11 6 5 10 -3 15 -9 12 -12z m366 -47 c5 4 9 1 9 -4 0
-6 -7 -11 -15 -11 -11 0 -15 10 -13 38 1 37 1 37 5 4 2 -18 9 -30 14 -27z m97
36 c7 -1 10 -6 7 -11 -5 -8 -11 -7 -21 1 -19 16 -41 -38 -25 -63 10 -16 7 -18
-24 -18 -19 0 -35 5 -35 11 0 6 8 8 19 4 15 -5 20 1 25 31 8 42 3 52 -19 34
-13 -11 -14 -10 -9 3 4 12 15 15 37 12 18 -2 38 -4 45 -4z m56 -9 c2 -4 -4 -8
-14 -8 -10 0 -16 4 -14 8 3 4 9 8 14 8 5 0 11 -4 14 -8z m-597 -48 c-3 -3 -12
-4 -19 -1 -8 3 -5 6 6 6 11 1 17 -2 13 -5z m626 -6 c3 -9 -9 -14 -37 -15 l-41
-2 35 13 c19 8 36 14 36 15 1 0 4 -5 7 -11z m64 -4 c-3 -3 -12 -4 -19 -1 -8 3
-5 6 6 6 11 1 17 -2 13 -5z m-147 -8 c0 -3 -4 -8 -10 -11 -5 -3 -10 -1 -10 4
0 6 5 11 10 11 6 0 10 -2 10 -4z m-527 -63 c-7 -2 -19 -2 -25 0 -7 3 -2 5 12
5 14 0 19 -2 13 -5z m22 -33 c18 -8 18 -9 -5 -9 -14 -1 -37 -8 -50 -17 l-25
-17 25 26 c28 29 28 29 55 17z m245 -10 c16 7 35 10 42 7 7 -3 4 -6 -7 -6 -11
-1 -31 -8 -43 -17 -18 -13 -21 -19 -11 -30 10 -13 15 -12 33 3 20 17 20 16 -1
-7 -15 -18 -23 -42 -26 -80 l-3 -55 -2 67 c-2 57 -5 69 -24 82 -15 11 -18 16
-8 16 10 0 7 7 -10 21 l-25 21 28 -17 c24 -14 34 -15 57 -5z m103 13 c-7 -2
-21 -2 -30 0 -10 3 -4 5 12 5 17 0 24 -2 18 -5z m44 -9 c-3 -3 -12 -4 -19 -1
-8 3 -5 6 6 6 11 1 17 -2 13 -5z m151 -1 c-10 -2 -26 -2 -35 0 -10 3 -2 5 17
5 19 0 27 -2 18 -5z m-512 -44 c-14 -17 -26 -35 -26 -41 0 -6 -3 -8 -6 -5 -8
8 37 77 49 77 5 0 -3 -14 -17 -31z m137 24 c-7 -2 -19 -2 -25 0 -7 3 -2 5 12
5 14 0 19 -2 13 -5z m542 -21 c-8 -8 -25 10 -19 20 4 6 9 5 15 -3 4 -7 6 -15
4 -17z m-604 -8 c-12 -15 -21 -33 -21 -40 0 -7 -4 -15 -9 -18 -12 -8 -1 34 17
62 8 12 19 22 24 22 5 0 0 -12 -11 -26z m277 19 c-16 -3 -28 -11 -30 -23 -3
-17 -4 -17 -19 3 -16 22 -15 22 30 23 25 1 34 -1 19 -3z m194 -38 c8 -15 5
-14 -14 5 -13 14 -22 29 -20 34 5 8 13 -2 34 -39z"/>
<path d="M3232 258 c-14 -14 -16 -35 -3 -42 5 -3 8 2 7 11 0 9 10 23 24 30 22
11 23 13 5 13 -12 0 -26 -5 -33 -12z"/>
<path d="M3307 232 c3 -19 2 -23 -5 -14 -7 11 -10 9 -14 -6 -4 -13 -16 -22
-34 -25 l-29 -4 28 -2 c40 -2 67 16 67 44 0 13 -4 26 -9 29 -4 3 -6 -7 -4 -22z"/>
<path d="M3257 243 c-4 -3 -7 -11 -7 -17 0 -6 5 -5 12 2 6 6 9 14 7 17 -3 3
-9 2 -12 -2z"/>
<path d="M2512 168 c-3 -71 -16 -98 -49 -98 -24 -1 -25 -2 -11 -11 23 -13 56
4 64 34 3 13 4 46 1 73 l-3 49 -2 -47z"/>
<path d="M3150 180 c0 -5 5 -10 11 -10 5 0 7 5 4 10 -3 6 -8 10 -11 10 -2 0
-4 -4 -4 -10z"/>
<path d="M2458 153 c-21 -5 -32 -33 -17 -47 9 -8 10 -8 5 1 -3 6 4 19 16 27
24 17 22 24 -4 19z"/>
<path d="M2574 152 c-13 -8 -26 -104 -13 -96 5 3 9 21 9 40 0 22 6 37 15 40 8
4 15 10 15 15 0 11 -11 11 -26 1z"/>
<path d="M3093 150 c-17 -7 -23 -18 -23 -41 0 -22 -5 -32 -20 -36 -23 -6 -27
-23 -6 -23 20 0 36 23 38 55 2 17 10 30 20 33 10 2 18 8 18 13 0 5 -1 9 -2 8
-2 0 -13 -4 -25 -9z"/>
<path d="M3183 153 c-28 -4 -33 -8 -32 -31 0 -26 1 -26 9 -4 6 15 18 22 35 22
14 0 25 5 25 10 0 6 -1 9 -2 8 -2 0 -18 -3 -35 -5z"/>
<path d="M3260 105 c0 -35 4 -54 10 -50 6 3 10 26 10 50 0 24 -4 47 -10 50 -6
4 -10 -15 -10 -50z"/>
<path d="M2640 135 c-8 -10 -10 -19 -4 -25 5 -5 14 1 21 16 12 27 2 32 -17 9z"/>
<path d="M2680 125 c-13 -14 -19 -25 -13 -25 12 0 48 38 41 45 -2 3 -15 -6
-28 -20z"/>
<path d="M2757 143 c-11 -11 -8 -41 6 -49 6 -4 9 -3 4 1 -4 5 0 19 8 32 12 18
13 23 2 23 -8 0 -17 -3 -20 -7z"/>
<path d="M2880 116 c0 -19 -3 -42 -7 -52 -4 -12 -3 -15 5 -10 7 4 12 22 12 40
0 17 5 37 12 44 9 9 8 12 -5 12 -13 0 -17 -9 -17 -34z"/>
<path d="M2940 116 c0 -19 -3 -41 -6 -50 -3 -9 -1 -16 5 -16 6 0 11 17 11 38
0 21 5 43 12 50 9 9 8 12 -5 12 -13 0 -17 -9 -17 -34z"/>
<path d="M2989 102 c-3 -32 0 -51 6 -49 14 5 18 63 7 84 -8 13 -11 4 -13 -35z"/>
<path d="M3320 116 c0 -19 -3 -41 -6 -50 -3 -9 -1 -16 5 -16 6 0 11 17 11 38
0 21 5 43 12 50 9 9 8 12 -5 12 -13 0 -17 -9 -17 -34z"/>
<path d="M3379 143 c-5 -55 -4 -91 2 -87 5 3 9 20 9 38 0 17 5 37 12 44 9 9 8
12 -5 12 -9 0 -17 -3 -18 -7z"/>
<path d="M3490 135 c-8 -10 -10 -19 -4 -25 5 -5 14 1 21 16 12 27 2 32 -17 9z"/>
<path d="M3530 125 c-18 -19 -20 -25 -8 -25 19 0 52 36 40 44 -5 3 -20 -6 -32
-19z"/>
<path d="M2824 97 c1 -25 4 -43 9 -40 10 6 9 55 -2 71 -5 8 -8 -4 -7 -31z"/>
<path d="M3428 95 c-2 -25 0 -45 4 -45 5 0 8 20 8 45 0 25 -2 45 -4 45 -2 0
-6 -20 -8 -45z"/>
<path d="M3202 90 c-7 -11 -22 -20 -35 -21 l-22 0 23 -11 c18 -9 26 -8 38 4 9
9 14 23 12 32 -3 14 -5 14 -16 -4z"/>
<path d="M3617 103 c-4 -3 -7 -13 -7 -22 1 -13 3 -13 11 2 11 19 8 33 -4 20z"/>
<path d="M3664 99 c-3 -6 -2 -15 4 -21 6 -6 11 -2 15 11 5 22 -7 29 -19 10z"/>
<path d="M3730 80 c0 -39 6 -39 12 0 3 16 1 30 -4 30 -4 0 -8 -13 -8 -30z"/>
<path d="M3760 80 c0 -39 6 -39 12 0 3 16 1 30 -4 30 -4 0 -8 -13 -8 -30z"/>
<path d="M3792 80 c0 -19 2 -27 5 -17 2 9 2 25 0 35 -3 9 -5 1 -5 -18z"/>
<path d="M3700 85 c0 -7 -8 -19 -17 -24 -16 -9 -16 -10 5 -11 17 0 22 6 22 25
0 14 -2 25 -5 25 -3 0 -5 -7 -5 -15z"/>
<path d="M2682 73 c-39 -5 -33 -23 9 -23 19 0 29 5 29 15 0 8 -1 14 -2 13 -2
0 -18 -3 -36 -5z"/>
<path d="M2776 70 c-17 -6 -18 -7 -3 -13 9 -3 19 -2 23 4 9 15 2 18 -20 9z"/>
<path d="M3520 70 c-22 -6 -23 -8 -7 -15 11 -4 23 -3 30 4 15 15 7 19 -23 11z"/>
<path d="M3625 60 c-19 -8 -19 -9 3 -9 12 -1 22 4 22 9 0 6 -1 10 -2 9 -2 0
-12 -4 -23 -9z"/>
</g>
</svg>
